<svg xmlns="http://www.w3.org/2000/svg" viewBox="0 0 1008 1008"><path fill="currentColor" d="M938 1053q-20 0-34-14L14 434q-20-9-7-34 10-20 35-7l890 604q3 0 6.5 3.5t6.5 3.5q21 0 42-14 25-12 35 7 12 25-7 35-13 10-27 15t-23 5.5-27 .5zm-90-702q0-46 32.5-78.5T959 240t79 32.5 33 78.5q0 23-9 43.5t-24 35-35.5 23.5-43.5 9q-30 0-55.5-15T863 406.5 848 351zm-49 174q7 0 14-7 11-11 0-21L355 52q-11-10-21.5 0t.5 21l458 445q0 5 1 6t6 1zm-132-70l21 21q0 28-7 35L570 657q-26 26-56 7-26-27-7-56l84-111q-21-14-77-56-132-102-132-167 0-53 28-90l56 56q-7 7-7 27 5 28 64.5 83.5T667 455zm271 160q12 11 14.5 28t-7.5 28q-13 14-34 14-14 0-21-7l-111-84q-14-14-14-28-16-216-21-243-16-16-76.5-52.5T570 219l-83-77q52-21 104 0 47 18 127.5 66.5T813 281q5 10 8 22.5t8.5 72T841 546z"/></svg>
